name Walk6.mot
datacolumns 19
datarows 17
range 1.19500000 1.27500000
endheader

                time	   L_ground_force_vx	   L_ground_force_vy	   L_ground_force_vz	   L_ground_force_px	   L_ground_force_py	   L_ground_force_pz	   R_ground_force_vx	   R_ground_force_vy	   R_ground_force_vz	   R_ground_force_px	   R_ground_force_py	   R_ground_force_pz	   L_ground_torque_x	   L_ground_torque_y	   L_ground_torque_z	   R_ground_torque_x	   R_ground_torque_y	   R_ground_torque_z	
          1.19500000	          0.22721725	         -6.27675445	          0.31412118	         -0.00013971	          0.00000000	         -0.00005923	         -0.00000000	         -0.00000000	         -0.00000000	          0.00000000	          0.00000000	          0.00000000	          0.00000000	         -0.00330440	          0.00000000	          0.00000000	          0.00000000	          0.00000000	
          1.20000000	         -3.55024737	         19.92879608	         -0.03970493	         -0.23008824	          0.00000000	         -0.02043334	         -0.00000000	          0.00000000	         -0.00000000	          0.00000000	          0.00000000	          0.00000000	          0.00000000	         -0.01838983	          0.00000000	          0.00000000	          0.00000000	          0.00000000	
          1.20500000	        -10.39432771	        106.47242447	         -2.94700074	         -0.43838192	          0.00000000	         -0.03833391	         -0.00000000	          0.00000000	          0.00000000	          0.00000000	          0.00000000	          0.00000000	          0.00000000	         -0.00537557	          0.00000000	          0.00000000	          0.00000000	          0.00000000	
          1.21000000	        -14.33541443	        215.48966969	        -10.01825899	         -0.49209969	          0.00000000	         -0.04253035	          0.00000000	         -0.00000000	          0.00000000	         -0.00000000	          0.00000000	         -0.00000000	          0.00000000	          0.02140963	          0.00000000	          0.00000000	         -0.00000000	          0.00000000	
          1.21500000	        -14.82764583	        257.77113439	        -18.29864682	         -0.48317708	          0.00000000	         -0.04130927	          0.00000000	         -0.00000000	         -0.00000000	         -0.00000000	          0.00000000	         -0.00000000	          0.00000000	          0.02778012	          0.00000000	          0.00000000	         -0.00000000	          0.00000000	
          1.22000000	        -17.14394230	        249.26922657	        -23.08440268	         -0.47312042	          0.00000000	         -0.04017328	          0.00000000	         -0.00000000	         -0.00000000	         -0.00000000	          0.00000000	         -0.00000000	          0.00000000	          0.03745259	          0.00000000	          0.00000000	         -0.00000000	          0.00000000	
          1.22500000	        -22.50153897	        255.65198189	        -24.26430322	         -0.46905157	          0.00000000	         -0.04073300	         -0.00000000	          0.00000000	         -0.00000000	          0.00000000	          0.00000000	          0.00000000	          0.00000000	          0.10857653	          0.00000000	          0.00000000	          0.00000000	          0.00000000	
          1.23000000	        -30.95695335	        285.13792826	        -22.81783671	         -0.46622371	          0.00000000	         -0.04242100	         -0.00000000	          0.00000000	          0.00000000	          0.00000000	          0.00000000	          0.00000000	          0.00000000	          0.30607100	          0.00000000	          0.00000000	          0.00000000	          0.00000000	
          1.23500000	        -41.34038001	        314.81918874	        -17.70988427	         -0.46273190	          0.00000000	         -0.04423975	         -0.00000000	          0.00000000	          0.00000000	         -0.00000000	          0.00000000	         -0.00000000	          0.00000000	          0.48295342	          0.00000000	          0.00000000	          0.00000000	          0.00000000	
          1.24000000	        -50.27507038	        332.22655237	         -9.95854541	         -0.45953152	          0.00000000	         -0.04572048	          0.00000000	         -0.00000000	          0.00000000	         -0.00000000	          0.00000000	         -0.00000000	          0.00000000	          0.48572012	          0.00000000	          0.00000000	         -0.00000000	          0.00000000	
          1.24500000	        -55.07104234	        343.34414767	         -3.50173018	         -0.45654638	          0.00000000	         -0.04711718	          0.00000000	         -0.00000000	         -0.00000000	         -0.00000000	          0.00000000	         -0.00000000	          0.00000000	          0.36925796	          0.00000000	          0.00000000	         -0.00000000	          0.00000000	
          1.25000000	        -55.86022537	        355.85648336	          0.25262027	         -0.45366904	          0.00000000	         -0.04846581	         -0.00000000	         -0.00000000	         -0.00000000	          0.00000000	          0.00000000	          0.00000000	          0.00000000	          0.31064450	          0.00000000	          0.00000000	         -0.00000000	          0.00000000	
          1.25500000	        -54.82605408	        370.13108251	          2.81540074	         -0.45123236	          0.00000000	         -0.04937282	         -0.00000000	          0.00000000	         -0.00000000	          0.00000000	          0.00000000	          0.00000000	          0.00000000	          0.36360104	          0.00000000	          0.00000000	          0.00000000	          0.00000000	
          1.26000000	        -54.74661918	        385.29288027	          5.46259977	         -0.44889427	          0.00000000	         -0.05009431	         -0.00000000	          0.00000000	          0.00000000	          0.00000000	          0.00000000	          0.00000000	          0.00000000	          0.44084997	          0.00000000	          0.00000000	          0.00000000	          0.00000000	
          1.26500000	        -57.65034513	        402.06765160	          8.65433162	         -0.44614634	          0.00000000	         -0.05092810	          0.00000000	          0.00000000	          0.00000000	         -0.00000000	          0.00000000	         -0.00000000	          0.00000000	          0.49971110	          0.00000000	          0.00000000	         -0.00000000	          0.00000000	
          1.27000000	        -63.89360469	        422.35519296	         12.22480948	         -0.44297291	          0.00000000	         -0.05185235	          0.00000000	         -0.00000000	         -0.00000000	         -0.00000000	          0.00000000	         -0.00000000	          0.00000000	          0.57230329	          0.00000000	          0.00000000	         -0.00000000	          0.00000000	
          1.27500000	        -71.98312977	        447.13445935	         15.82406794	         -0.43968681	          0.00000000	         -0.05238933	          0.00000000	         -0.00000000	         -0.00000000	         -0.00000000	          0.00000000	         -0.00000000	          0.00000000	          0.69189033	          0.00000000	          0.00000000	         -0.00000000	          0.00000000	
